<svg xmlns="http://www.w3.org/2000/svg" viewBox="0 0 50 50">
  <path d="M19.875 4.40625C16.195313 4.472656 13.507813 5.570313 11.875 7.71875C9.941406 10.265625 9.589844 14.144531 10.8125 19.21875C10.363281 19.769531 10.023438 20.605469 10.15625 21.71875C10.421875 23.921875 11.277344 24.828125 12 25.1875C12.34375 26.917969 13.300781 28.863281 14.21875 29.78125L14.21875 30.25C14.226563 31.265625 14.222656 32.144531 14.125 33.28125C13.511719 34.6875 11.472656 35.511719 9.125 36.4375C5.21875 37.972656 0.363281 39.871094 0 45.9375L-0.0625 47L40.0625 47L40 45.9375C39.894531 44.167969 39.390625 42.75 38.65625 41.59375L50.0625 41.59375L50 40.53125C49.871094 38.402344 49.039063 36.746094 47.875 35.5625C46.710938 34.378906 45.253906 33.640625 43.84375 33.03125C42.433594 32.421875 41.050781 31.964844 40 31.4375C38.984375 30.929688 38.410156 30.417969 38.15625 29.8125C38.074219 28.761719 38.054688 27.90625 38.0625 26.90625C38.160156 26.796875 38.316406 26.71875 38.40625 26.59375C38.644531 26.265625 38.882813 25.867188 39.09375 25.4375C39.449219 24.707031 39.691406 23.84375 39.84375 22.96875C40.105469 22.824219 40.382813 22.800781 40.59375 22.53125C41.023438 21.984375 41.308594 21.242188 41.4375 20.1875L41.4375 20.15625C41.546875 19.242188 41.25 18.628906 40.875 18.125C41.289063 16.769531 41.796875 14.632813 41.625 12.40625C41.527344 11.179688 41.21875 9.941406 40.46875 8.90625C39.757813 7.921875 38.59375 7.199219 37.125 6.9375C36.171875 5.878906 34.667969 5.40625 32.90625 5.40625C30.5 5.449219 28.625 6.035156 27.25 7.09375C26.621094 6.6875 25.882813 6.382813 25.0625 6.21875C24.117188 5.027344 22.304688 4.40625 19.875 4.40625 Z M 32.90625 7.40625C32.917969 7.40625 32.925781 7.40625 32.9375 7.40625C34.601563 7.414063 35.640625 7.90625 35.90625 8.375L36.15625 8.78125L36.625 8.875C37.761719 9.03125 38.394531 9.441406 38.84375 10.0625C39.292969 10.683594 39.546875 11.570313 39.625 12.5625C39.78125 14.546875 39.203125 16.910156 38.84375 18L38.59375 18.75L39.28125 19.15625C39.191406 19.101563 39.546875 19.292969 39.46875 19.9375C39.371094 20.746094 39.160156 21.148438 39.03125 21.3125C38.902344 21.476563 38.871094 21.441406 38.90625 21.4375L38.0625 21.5L38 22.3125C37.925781 23.015625 37.613281 23.878906 37.28125 24.5625C37.113281 24.902344 36.960938 25.203125 36.8125 25.40625C36.722656 25.527344 36.660156 25.617188 36.625 25.65625L36.59375 25.65625C36.589844 25.660156 36.59375 25.6875 36.59375 25.6875L36.0625 25.9375L36.0625 26.53125C36.0625 27.746094 36.027344 28.765625 36.15625 30.1875L36.15625 30.3125L36.21875 30.4375C36.722656 31.785156 37.886719 32.597656 39.125 33.21875C40.363281 33.839844 41.75 34.308594 43.0625 34.875C44.375 35.441406 45.566406 36.085938 46.4375 36.96875C47.09375 37.636719 47.503906 38.523438 47.75 39.59375L36.90625 39.59375C35.140625 38.097656 32.902344 37.226563 30.90625 36.4375C28.566406 35.511719 26.519531 34.6875 25.90625 33.28125C25.808594 32.148438 25.835938 31.261719 25.84375 30.25L25.84375 29.78125C26.738281 28.867188 27.660156 26.917969 28 25.1875C28.722656 24.828125 29.578125 23.921875 29.84375 21.71875C29.976563 20.628906 29.65625 19.800781 29.21875 19.25C29.800781 17.269531 30.988281 12.113281 28.9375 8.8125C28.863281 8.695313 28.769531 8.613281 28.6875 8.5C29.632813 7.859375 30.976563 7.445313 32.90625 7.40625Z" fill="currentColor" />
</svg>