<svg xmlns="http://www.w3.org/2000/svg" viewBox="0 0 30 30">
  <path
    d="M15 2.9980469C14.626 2.9980469 14.253484 3.0699375 13.896484 3.2109375L5.4746094 6.5234375C4.8686094 6.7614375 4.8570312 7.6151406 5.4570312 7.8691406L14.410156 11.664062C14.599156 11.744063 14.799 11.783203 15 11.783203C15.201 11.783203 15.401844 11.744062 15.589844 11.664062L24.542969 7.8691406C25.142969 7.6151406 25.131391 6.7614375 24.525391 6.5234375L16.103516 3.2109375C15.746516 3.0699375 15.374 2.9980469 15 2.9980469 z M 15 6C16.105 6 17 6.448 17 7C17 7.552 16.105 8 15 8C13.895 8 13 7.552 13 7C13 6.448 13.895 6 15 6 z M 3.8847656 9.5097656C3.4066406 9.5609531 3 9.9631406 3 10.494141L3 20.541016C3 21.689016 3.6409219 22.719516 4.6699219 23.228516C4.6699219 23.228516 9.3001094 25.507609 12.037109 26.849609C12.945109 27.294609 14 26.631094 14 25.621094L14 15.052734C14 14.209734 13.496703 13.448141 12.720703 13.119141L4.3730469 9.5839844C4.2100469 9.5149844 4.0441406 9.4927031 3.8847656 9.5097656 z M 26.115234 9.5097656C25.955859 9.4927031 25.789953 9.5149844 25.626953 9.5839844L17.279297 13.119141C16.503297 13.448141 16 14.209734 16 15.052734L16 25.621094C16 26.632094 17.054891 27.295562 17.962891 26.851562C20.699891 25.509563 25.330078 23.230469 25.330078 23.230469C26.359078 22.720469 27 21.689016 27 20.541016L27 10.494141C27 9.9631406 26.593359 9.5609531 26.115234 9.5097656 z M 5.7988281 12.287109C5.8639063 12.287623 5.931 12.298562 6 12.320312C6.552 12.493313 7 13.305766 7 14.134766C7 14.963766 6.552 15.494312 6 15.320312C5.448 15.147312 5 14.334859 5 13.505859C5 12.780484 5.3432813 12.283514 5.7988281 12.287109 z M 24.201172 12.646484C24.656719 12.643066 25 13.140734 25 13.865234C25 14.693234 24.552 15.506687 24 15.679688C23.448 15.852688 23 15.322141 23 14.494141C23 13.666141 23.448 12.853687 24 12.679688C24.069 12.657937 24.136094 12.646973 24.201172 12.646484 z M 20.201172 14.287109C20.656719 14.283691 21 14.781359 21 15.505859C21 16.333859 20.552 17.147312 20 17.320312C19.448 17.493312 19 16.962766 19 16.134766C19 15.306766 19.448 14.494312 20 14.320312C20.069 14.298562 20.136094 14.287598 20.201172 14.287109 z M 24.201172 18.287109C24.656719 18.283691 25 18.781359 25 19.505859C25 20.333859 24.552 21.147312 24 21.320312C23.448 21.493312 23 20.962766 23 20.134766C23 19.306766 23.448 18.494312 24 18.320312C24.069 18.298562 24.136094 18.287598 24.201172 18.287109 z M 9.7988281 20.287109C9.8639062 20.287623 9.931 20.298562 10 20.320312C10.552 20.493312 11 21.305766 11 22.134766C11 22.963766 10.552 23.494312 10 23.320312C9.448 23.147313 9 22.334859 9 21.505859C9 20.780484 9.3432813 20.283514 9.7988281 20.287109 z M 20.201172 20.287109C20.656719 20.283691 21 20.781359 21 21.505859C21 22.333859 20.552 23.147312 20 23.320312C19.448 23.493312 19 22.962766 19 22.134766C19 21.306766 19.448 20.494313 20 20.320312C20.069 20.298562 20.136094 20.287598 20.201172 20.287109 z"
    fill="currentColor" />
</svg>