<svg xmlns="http://www.w3.org/2000/svg" viewBox="0 0 50 50">
  <path
    d="M43 2L25 2C22.242188 2 20 4.242188 20 7L20 20L7 20C4.242188 20 2 22.242188 2 25L2 43C2 45.757813 4.242188 48 7 48L43 48C45.757813 48 48 45.757813 48 43L48 7C48 4.242188 45.757813 2 43 2 Z M 35 28C35 31.859375 31.859375 35 28 35L13.414063 35L17.707031 39.292969C18.097656 39.683594 18.097656 40.316406 17.707031 40.707031C17.511719 40.902344 17.257813 41 17 41C16.742188 41 16.488281 40.902344 16.292969 40.707031L10.292969 34.707031C10.199219 34.617188 10.128906 34.503906 10.078125 34.382813C9.976563 34.136719 9.976563 33.863281 10.078125 33.617188C10.128906 33.496094 10.199219 33.386719 10.292969 33.292969L16.292969 27.292969C16.683594 26.902344 17.316406 26.902344 17.707031 27.292969C18.097656 27.683594 18.097656 28.316406 17.707031 28.707031L13.414063 33L28 33C30.757813 33 33 30.757813 33 28L33 16C33 15.449219 33.445313 15 34 15C34.554688 15 35 15.449219 35 16Z"
    fill="currentColor" />
</svg>