<svg xmlns="http://www.w3.org/2000/svg" viewBox="0 0 130 86">
  <path
    d="M44 5v32c0 2.76 2.24 5 5 5h32c2.76 0 5-2.24 5-5V5c0-2.76-2.24-5-5-5H49c-2.76 0-5 2.24-5 5Zm33.71 20.29c.19.2.29.45.29.71 0 .26-.1.51-.29.71-.39.39-1.03.39-1.42 0L65 15.41l-11.29 11.3c-.39.39-1.03.39-1.42 0-.39-.39-.39-1.03 0-1.42L65 12.59l12.71 12.7ZM86 81V49c0-2.76-2.24-5-5-5H49c-2.76 0-5 2.24-5 5v32c0 2.76 2.24 5 5 5h32c2.76 0 5-2.24 5-5ZM52.29 60.71c-.19-.2-.29-.45-.29-.71 0-.26.1-.51.29-.71.39-.39 1.03-.39 1.42 0L65 70.59l11.29-11.3c.39-.39 1.03-.39 1.42 0 .39.39.39 1.03 0 1.42L65 73.41l-12.71-12.7ZM125 44H93c-2.76 0-5 2.24-5 5v32c0 2.76 2.24 5 5 5h32c2.76 0 5-2.24 5-5V49c0-2.76-2.24-5-5-5Zm-20.29 33.71c-.2.19-.45.29-.71.29-.26 0-.51-.1-.71-.29-.39-.39-.39-1.03 0-1.42L114.59 65l-11.3-11.29c-.39-.39-.39-1.03 0-1.42.39-.39 1.03-.39 1.42 0L117.41 65l-12.7 12.71ZM5 86h32c2.76 0 5-2.24 5-5V49c0-2.76-2.24-5-5-5H5c-2.76 0-5 2.24-5 5v32c0 2.76 2.24 5 5 5Zm20.29-33.71c.2-.19.45-.29.71-.29.26 0 .51.1.71.29.39.39.39 1.03 0 1.42L15.41 65l11.3 11.29c.39.39.39 1.03 0 1.42-.39.39-1.03.39-1.42 0L12.59 65l12.7-12.71Z"
    fill="currentColor" />
</svg>