<svg xmlns="http://www.w3.org/2000/svg" viewBox="0 0 50 50">
  <path
    d="M25 2.0058594C12.321 2.0058594 2.0078125 12.321 2.0078125 25C2.0078125 37.679 12.321 47.994141 25 47.994141C37.679 47.994141 47.992187 37.679 47.992188 25C47.992188 12.321 37.679 2.0058594 25 2.0058594 z M 37.494141 10.763672C38.176141 11.230672 38.768375 11.821859 39.234375 12.505859L33.269531 17.710938C33.006531 17.324938 32.674062 16.990563 32.289062 16.726562L37.494141 10.763672 z M 25 17C29.419 17 33 20.581 33 25C33 29.419 29.419 33 25 33C20.581 33 17 29.419 17 25C17 20.581 20.581 17 25 17 z M 25 23 A 2 2 0 0 0 23 25 A 2 2 0 0 0 25 27 A 2 2 0 0 0 27 25 A 2 2 0 0 0 25 23 z M 16.746094 32.238281C17.009094 32.624281 17.343516 32.958656 17.728516 33.222656L12.455078 39.253906C11.773078 38.786906 11.182797 38.195719 10.716797 37.511719L16.746094 32.238281 z"
    fill="currentColor" />
</svg>