<svg xmlns="http://www.w3.org/2000/svg" viewBox="0 0 50 50">
  <path
    d="M25 2C12.316406 2 2 12.316406 2 25C2 37.683594 12.316406 48 25 48C37.683594 48 48 37.683594 48 25C48 12.316406 37.683594 2 25 2 Z M 18.84375 14.96875L26.53125 14.96875C30.179688 14.96875 32.40625 16.882813 32.40625 19.90625C32.40625 21.96875 30.882813 23.8125 28.96875 24.15625L28.96875 24.375C31.648438 24.6875 33.40625 26.558594 33.40625 29.15625C33.40625 32.628906 30.882813 34.71875 26.6875 34.71875L18.84375 34.71875 Z M 21.53125 17.3125L21.53125 23.4375L25.34375 23.4375C28.226563 23.4375 29.71875 22.386719 29.71875 20.375C29.71875 18.433594 28.316406 17.3125 25.9375 17.3125 Z M 21.53125 25.65625L21.53125 32.375L26.25 32.375C29.136719 32.375 30.625 31.214844 30.625 29C30.625 26.800781 29.078125 25.65625 26.03125 25.65625Z"
    fill="currentColor" />
</svg>