<svg viewBox="0 0 38 36" fill="none" xmlns="http://www.w3.org/2000/svg">
<path fill-rule="evenodd" clip-rule="evenodd" d="M0 5C0 2.2 2.2 0 5 0H33C35.8 0 38 2.2 38 5V31C38 33.8 35.8 36 33 36H5C2.2 36 0 33.8 0 31V5ZM16.512 14.536V12.304H14.52V11.032C14.52 10.36 14.824 10.024 15.432 10.024C15.784 10.024 16.104 10.048 16.392 10.096V7.576C15.768 7.528 15.128 7.504 14.472 7.504C12.264 7.504 11.16 8.584 11.16 10.744V12.304H9.336V14.536H11.16V25H14.52V14.536H16.512ZM18.2642 10.72C18.0242 11.392 17.9042 12.168 17.9042 13.048V13.336H21.0242C21.0562 12.328 21.2322 11.576 21.5522 11.08C21.8722 10.584 22.4722 10.336 23.3522 10.336C24.0242 10.336 24.5442 10.536 24.9122 10.936C25.2802 11.32 25.4642 11.864 25.4642 12.568C25.4642 14.28 24.4722 15.136 22.4882 15.136H22.2002V17.392C23.0642 17.392 23.7202 17.448 24.1682 17.56C24.7282 17.72 25.1762 18.032 25.5122 18.496C25.8482 18.944 26.0162 19.48 26.0162 20.104C26.0162 20.856 25.7762 21.472 25.2962 21.952C24.8322 22.432 24.2322 22.672 23.4962 22.672C21.8962 22.672 21.0482 21.784 20.9522 20.008H17.6882C17.7042 21.704 18.2242 23.056 19.2482 24.064C20.2882 25.056 21.6802 25.552 23.4242 25.552C25.2322 25.552 26.6722 25.064 27.7442 24.088C28.8322 23.096 29.3762 21.768 29.3762 20.104C29.3762 19.112 29.1522 18.28 28.7042 17.608C28.2562 16.92 27.5522 16.344 26.5922 15.88C27.3762 15.384 27.9442 14.856 28.2962 14.296C28.6482 13.72 28.8242 13.04 28.8242 12.256C28.8242 10.848 28.3362 9.728 27.3602 8.896C26.3842 8.048 25.0722 7.624 23.4242 7.624C22.9282 7.624 22.4482 7.664 21.9842 7.744C21.5362 7.824 21.0562 7.984 20.5442 8.224C20.0322 8.448 19.5842 8.752 19.2002 9.136C18.8322 9.52 18.5202 10.048 18.2642 10.72Z" fill="black"/>
</svg>
