<svg xmlns="http://www.w3.org/2000/svg" viewBox="0 0 50 50"><path d="M36.34375 8C16.417969 8 7.4375 14.539063 4.5 17.34375C3.789063 18.023438 3.339844 18.941406 3.25 19.9375L2.03125 33.53125C1.925781 34.6875 2.285156 35.835938 3.0625 36.6875C3.820313 37.515625 4.917969 38 6.03125 38L38.59375 38C40.277344 38 41.800781 36.925781 42.375 35.3125C46.105469 24.828125 48 18.898438 48 17.6875C48 15.097656 38.875 8 36.34375 8 Z M 15.28125 17.90625L17.5625 17.90625L17.5625 28.59375L23.375 28.59375L23.375 30.5625L15.28125 30.5625 Z M 25.8125 17.90625L31.125 17.90625C33.53125 17.90625 34.96875 19.113281 34.96875 21.0625C34.96875 22.398438 33.992188 23.578125 32.71875 23.78125L32.71875 23.9375C34.421875 24.09375 35.59375 25.316406 35.59375 26.96875C35.59375 29.191406 33.957031 30.5625 31.25 30.5625L25.8125 30.5625 Z M 28.09375 19.6875L28.09375 23.21875L30.28125 23.21875C31.886719 23.21875 32.75 22.613281 32.75 21.46875C32.75 20.351563 31.933594 19.6875 30.5625 19.6875 Z M 28.09375 24.875L28.09375 28.78125L30.71875 28.78125C32.390625 28.78125 33.28125 28.105469 33.28125 26.8125C33.28125 25.546875 32.386719 24.875 30.65625 24.875Z"/></svg>