<svg viewBox="0 0 38 36" fill="none" xmlns="http://www.w3.org/2000/svg">
<path fill-rule="evenodd" clip-rule="evenodd" d="M0 5C0 2.2 2.2 0 5 0H33C35.8 0 38 2.2 38 5V31C38 33.8 35.8 36 33 36H5C2.2 36 0 33.8 0 31V5ZM10.168 8.462C9.58933 7.69667 8.824 7.314 7.872 7.314C6.93867 7.314 6.23867 7.72933 5.772 8.56V7.44H3.812V18.052H5.772V14.104C6.23867 14.9253 6.93867 15.336 7.872 15.336C8.77733 15.336 9.52867 14.958 10.126 14.202C10.7327 13.4367 11.036 12.48 11.036 11.332C11.036 10.184 10.7467 9.22733 10.168 8.462ZM7.424 8.952C7.91867 8.952 8.31533 9.176 8.614 9.624C8.922 10.0627 9.076 10.6413 9.076 11.36C9.076 12.0413 8.922 12.6013 8.614 13.04C8.306 13.4787 7.90933 13.698 7.424 13.698C6.92933 13.698 6.528 13.4833 6.22 13.054C5.92133 12.6153 5.772 12.0413 5.772 11.332C5.772 10.6227 5.92133 10.0487 6.22 9.61C6.528 9.17133 6.92933 8.952 7.424 8.952ZM12.4439 14.706C12.8639 15.1167 13.4192 15.322 14.1099 15.322C14.9499 15.322 15.7152 14.9627 16.4059 14.244C16.4059 14.5613 16.4805 14.8133 16.6299 15H18.7579V14.762C18.4592 14.4913 18.3099 14.1833 18.3099 13.838V9.638C18.3099 8.08867 17.2785 7.314 15.2159 7.314C13.1812 7.314 12.1032 8.18667 11.9819 9.932H13.8719C13.9185 9.54 14.0399 9.26933 14.2359 9.12C14.4319 8.97067 14.7725 8.896 15.2579 8.896C16.0139 8.896 16.3919 9.148 16.3919 9.652C16.3919 9.75467 16.3779 9.848 16.3499 9.932C16.3219 10.0067 16.2659 10.0767 16.1819 10.142C16.1072 10.198 16.0419 10.2447 15.9859 10.282C15.9299 10.3193 15.8319 10.352 15.6919 10.38C15.5612 10.408 15.4725 10.4313 15.4259 10.45C15.3792 10.4593 15.2719 10.478 15.1039 10.506C14.9359 10.5247 14.8425 10.534 14.8239 10.534L14.0399 10.674C12.5559 10.926 11.8139 11.7193 11.8139 13.054C11.8139 13.7353 12.0239 14.286 12.4439 14.706ZM16.3919 11.43V11.962C16.3919 12.5313 16.2565 12.97 15.9859 13.278C15.7152 13.586 15.3325 13.74 14.8379 13.74C14.5112 13.74 14.2499 13.6607 14.0539 13.502C13.8672 13.334 13.7739 13.11 13.7739 12.83C13.7739 12.5407 13.8579 12.3167 14.0259 12.158C14.1939 11.9993 14.4832 11.878 14.8939 11.794L15.5659 11.668C15.9392 11.5933 16.2145 11.514 16.3919 11.43ZM26.6385 7.44H24.7765V8.602C24.2165 7.74333 23.5165 7.314 22.6765 7.314C21.7805 7.314 21.0338 7.706 20.4365 8.49C19.8391 9.26467 19.5405 10.2353 19.5405 11.402C19.5405 12.578 19.8205 13.5253 20.3805 14.244C20.9498 14.9627 21.7011 15.322 22.6345 15.322C23.0731 15.322 23.4465 15.2427 23.7545 15.084C24.0718 14.9253 24.4125 14.6407 24.7765 14.23V15.252C24.7765 15.7093 24.6225 16.078 24.3145 16.358C24.0065 16.6473 23.6051 16.792 23.1105 16.792C22.3451 16.792 21.8831 16.498 21.7245 15.91H19.6945C19.7038 16.5633 20.0118 17.0813 20.6185 17.464C21.2251 17.856 22.0325 18.052 23.0405 18.052C24.1791 18.052 25.0611 17.8047 25.6865 17.31C26.3211 16.8247 26.6385 16.1387 26.6385 15.252V7.44ZM21.9345 9.624C22.2331 9.176 22.6205 8.952 23.0965 8.952C23.5911 8.952 23.9971 9.18067 24.3145 9.638C24.6411 10.0953 24.8045 10.674 24.8045 11.374C24.8045 12.0553 24.6411 12.6107 24.3145 13.04C23.9971 13.4693 23.5818 13.684 23.0685 13.684C22.6018 13.684 22.2238 13.4693 21.9345 13.04C21.6451 12.6107 21.5005 12.0553 21.5005 11.374C21.5005 10.6553 21.6451 10.072 21.9345 9.624ZM32.2463 7.426C31.9383 7.35133 31.621 7.314 31.2943 7.314C30.2117 7.314 29.3577 7.68267 28.7323 8.42C28.107 9.148 27.7943 10.1467 27.7943 11.416C27.7943 12.6293 28.1023 13.586 28.7183 14.286C29.3343 14.9767 30.179 15.322 31.2523 15.322C32.1017 15.322 32.8437 15.1027 33.4783 14.664C34.113 14.216 34.5377 13.6187 34.7523 12.872H32.8203C32.5683 13.5067 32.069 13.824 31.3223 13.824C31.005 13.824 30.739 13.7727 30.5243 13.67C30.319 13.558 30.1603 13.404 30.0483 13.208C29.9457 13.0027 29.871 12.7973 29.8243 12.592C29.787 12.3773 29.7637 12.1253 29.7543 11.836H34.8223C34.8317 11.724 34.8363 11.612 34.8363 11.5C34.8363 10.856 34.7617 10.2867 34.6123 9.792C34.463 9.288 34.267 8.88667 34.0243 8.588C33.791 8.28 33.511 8.028 33.1843 7.832C32.867 7.636 32.5543 7.50067 32.2463 7.426ZM32.3303 9.26C32.5917 9.55867 32.7457 9.98333 32.7923 10.534H29.7823C29.913 9.386 30.4077 8.812 31.2663 8.812C31.7237 8.812 32.0783 8.96133 32.3303 9.26ZM8.614 27H10.574V19.44H8.614V24.172C8.614 24.62 8.46933 24.9793 8.18 25.25C7.89067 25.5207 7.508 25.656 7.032 25.656C6.192 25.656 5.772 25.2033 5.772 24.298V19.44H3.812V24.704C3.812 25.5347 4.03133 26.1787 4.47 26.636C4.918 27.0933 5.54333 27.322 6.346 27.322C7.31667 27.322 8.07267 26.916 8.614 26.104V27ZM18.6582 20.462C18.0796 19.6967 17.3142 19.314 16.3622 19.314C15.4289 19.314 14.7289 19.7293 14.2622 20.56V19.44H12.3022V30.052H14.2622V26.104C14.7289 26.9253 15.4289 27.336 16.3622 27.336C17.2676 27.336 18.0189 26.958 18.6162 26.202C19.2229 25.4367 19.5262 24.48 19.5262 23.332C19.5262 22.184 19.2369 21.2273 18.6582 20.462ZM15.9142 20.952C16.4089 20.952 16.8056 21.176 17.1042 21.624C17.4122 22.0627 17.5662 22.6413 17.5662 23.36C17.5662 24.0413 17.4122 24.6013 17.1042 25.04C16.7962 25.4787 16.3996 25.698 15.9142 25.698C15.4196 25.698 15.0182 25.4833 14.7102 25.054C14.4116 24.6153 14.2622 24.0413 14.2622 23.332C14.2622 22.6227 14.4116 22.0487 14.7102 21.61C15.0182 21.1713 15.4196 20.952 15.9142 20.952Z" fill="black"/>
</svg>
