<svg viewBox="0 0 38 36" fill="none" xmlns="http://www.w3.org/2000/svg">
<path fill-rule="evenodd" clip-rule="evenodd" d="M0 5C0 2.2 2.20001 0 5 0H33C35.8 0 38 2.2 38 5V31C38 33.8 35.8 36 33 36H5C2.20001 36 0 33.8 0 31V5ZM23.736 16.592C24.152 15.824 24.36 14.968 24.36 14.024C24.36 12.376 23.832 11.064 22.776 10.088C21.736 9.112 20.32 8.62399 18.528 8.62399C16.768 8.62399 15.392 9.12799 14.4 10.136C13.424 11.128 12.936 12.52 12.936 14.312C12.936 14.536 12.944 14.736 12.96 14.912H16.176V14.36C16.176 13.416 16.384 12.68 16.8 12.152C17.232 11.624 17.832 11.36 18.6 11.36C19.352 11.36 19.936 11.608 20.352 12.104C20.784 12.584 21 13.248 21 14.096C21 15.04 20.744 15.832 20.232 16.472C19.72 17.096 18.528 18.064 16.656 19.376C15.216 20.384 14.216 21.352 13.656 22.28C13.112 23.192 12.8 24.432 12.72 26H24.288V23H17.088C17.344 22.456 17.776 21.928 18.384 21.416C18.992 20.888 19.624 20.408 20.28 19.976C20.936 19.528 21.576 19.048 22.2 18.536C22.824 18.008 23.336 17.36 23.736 16.592Z" fill="currentColor"/>
</svg>
