<svg viewBox="0 0 38 36" fill="none" xmlns="http://www.w3.org/2000/svg">
<path fill-rule="evenodd" clip-rule="evenodd" d="M0 5C0 2.2 2.2 0 5 0H33C35.8 0 38 2.2 38 5V31C38 33.8 35.8 36 33 36H5C2.2 36 0 33.8 0 31V5ZM16.512 14.536V12.304H14.52V11.032C14.52 10.36 14.824 10.024 15.432 10.024C15.784 10.024 16.104 10.048 16.392 10.096V7.576C15.768 7.528 15.128 7.504 14.472 7.504C12.264 7.504 11.16 8.584 11.16 10.744V12.304H9.336V14.536H11.16V25H14.52V14.536H16.512ZM29.5202 21.232V18.448H27.7442V7.984H23.7842L17.5682 18.4V21.232H24.3842V25H27.7442V21.232H29.5202ZM24.3842 11.176V18.448H19.9442L24.3842 11.176Z" fill="currentColor"/>
</svg>
