<svg xmlns="http://www.w3.org/2000/svg" viewBox="0 0 50 50"><path d="M25 2C12.316406 2 2 12.316406 2 25C2 37.683594 12.316406 48 25 48C37.683594 48 48 37.683594 48 25C48 12.316406 37.683594 2 25 2 Z M 35 32L15 32C14.449219 32 14 31.554688 14 31C14 30.445313 14.449219 30 15 30L35 30C35.554688 30 36 30.445313 36 31C36 31.554688 35.554688 32 35 32 Z M 35 26L15 26C14.449219 26 14 25.550781 14 25C14 24.449219 14.449219 24 15 24L35 24C35.554688 24 36 24.449219 36 25C36 25.550781 35.554688 26 35 26 Z M 35 20L15 20C14.449219 20 14 19.550781 14 19C14 18.449219 14.449219 18 15 18L35 18C35.554688 18 36 18.449219 36 19C36 19.550781 35.554688 20 35 20Z"/></svg>