<svg xmlns="http://www.w3.org/2000/svg" viewBox="0 0 50 50"><path d="M13.65625 8C11.125 8 2 15.097656 2 17.6875C2 18.902344 3.894531 24.832031 7.625 35.3125C8.199219 36.925781 9.71875 38 11.40625 38L43.96875 38C45.082031 38 46.179688 37.515625 46.9375 36.6875C47.714844 35.835938 48.074219 34.6875 47.96875 33.53125L46.75 19.9375C46.660156 18.941406 46.210938 18.023438 45.5 17.34375C42.5625 14.539063 33.582031 8 13.65625 8 Z M 14.4375 17.90625L19.59375 17.90625C22.257813 17.90625 23.9375 19.410156 23.9375 21.84375C23.9375 23.515625 23.042969 24.921875 21.53125 25.46875L24.3125 30.5625L21.71875 30.5625L19.21875 25.8125L16.71875 25.8125L16.71875 30.5625L14.4375 30.5625 Z M 26.6875 17.90625L31.96875 17.90625C34.375 17.90625 35.84375 19.113281 35.84375 21.0625C35.84375 22.398438 34.839844 23.578125 33.5625 23.78125L33.5625 23.9375C35.265625 24.09375 36.46875 25.316406 36.46875 26.96875C36.46875 29.191406 34.800781 30.5625 32.09375 30.5625L26.6875 30.5625 Z M 28.9375 19.6875L28.9375 23.21875L31.125 23.21875C32.730469 23.21875 33.59375 22.613281 33.59375 21.46875C33.59375 20.351563 32.777344 19.6875 31.40625 19.6875 Z M 16.71875 19.78125L16.71875 24.03125L19.34375 24.03125C20.785156 24.03125 21.59375 23.25 21.59375 21.90625C21.59375 20.589844 20.722656 19.78125 19.28125 19.78125 Z M 28.9375 24.875L28.9375 28.78125L31.5625 28.78125C33.234375 28.78125 34.125 28.105469 34.125 26.8125C34.125 25.546875 33.234375 24.875 31.5 24.875Z"/></svg>