<svg viewBox="0 0 32 33" fill="none" xmlns="http://www.w3.org/2000/svg">
  <g clip-path="url(#clip0_17_27)">
    <circle cx="24.5" cy="9.5" r="5.01041" transform="rotate(45 24.5 9.5)" stroke="currentColor" stroke-width="2" />
    <circle cx="7.50003" cy="9.5" r="5.01041" transform="rotate(-45 7.50003 9.5)" stroke="currentColor"
      stroke-width="2" />
    <path
      d="M19.4 11.2L6.5071 24.0929C6.11658 24.4834 6.11658 25.1166 6.5071 25.5071L8.49289 27.4929C8.88341 27.8834 9.51658 27.8834 9.9071 27.4929L22.8 14.6"
      stroke="currentColor" stroke-width="2" />
    <path
      d="M15.9167 21.3167L22.0929 27.4929C22.4834 27.8834 23.1166 27.8834 23.5071 27.4929L25.4929 25.5071C25.8834 25.1166 25.8834 24.4834 25.4929 24.0929L19.5 18.1M16 14.5L12.6 11.2M9.19999 14.6L12.6 18"
      stroke="currentColor" stroke-width="2" />
  </g>
</svg>