<svg viewBox="0 0 24 24" fill="none" xmlns="http://www.w3.org/2000/svg">
  <path
    d="M2 4V20C2 21.1046 2.89543 22 4 22H20C21.1046 22 22 21.1046 22 20V4C22 2.89543 21.1046 2 20 2H4C2.89543 2 2 2.89543 2 4Z"
    stroke="currentColor" stroke-width="2" />
  <path d="M8 6H7C6.44772 6 6 6.44772 6 7V12M8 18H7C6.44772 18 6 17.5523 6 17V12M6 12H8" stroke="currentColor"
    stroke-width="2" stroke-linecap="round" />
  <path
    d="M13 6H12C11.4477 6 11 6.44772 11 7V11C11 11.5523 11.4477 12 12 12V12C12.5523 12 13 12.4477 13 13V17C13 17.5523 12.5523 18 12 18H11"
    stroke="currentColor" stroke-width="2" stroke-linecap="round" />
  <path d="M18 6H17C16.4477 6 16 6.44772 16 7V16.9998C16 17.5521 16.4477 17.9998 17 17.9998H18" stroke="currentColor"
    stroke-width="2" stroke-linecap="round" />
</svg>