<svg viewBox="0 0 24 24" fill="none" xmlns="http://www.w3.org/2000/svg">
  <path
    d="M2 4V20C2 21.1046 2.89543 22 4 22H20C21.1046 22 22 21.1046 22 20V4C22 2.89543 21.1046 2 20 2L4 2C2.89543 2 2 2.89543 2 4Z"
    stroke="currentColor" stroke-width="2" />
  <path
    d="M7.52219 9.24C8.02885 9.24 8.46219 9.33667 8.82219 9.53C9.18885 9.72334 9.47219 10.0033 9.67219 10.37C9.87219 10.7367 9.97219 11.1867 9.97219 11.72V12.44H6.45219C6.46552 12.86 6.58885 13.19 6.82219 13.43C7.06219 13.67 7.39219 13.79 7.81219 13.79C8.16552 13.79 8.48552 13.7567 8.77219 13.69C9.05885 13.6167 9.35552 13.5067 9.66219 13.36V14.51C9.39552 14.6433 9.11219 14.74 8.81219 14.8C8.51885 14.8667 8.16219 14.9 7.74219 14.9C7.19552 14.9 6.71219 14.8 6.29219 14.6C5.87219 14.3933 5.54219 14.0833 5.30219 13.67C5.06219 13.2567 4.94219 12.7367 4.94219 12.11C4.94219 11.47 5.04885 10.94 5.26219 10.52C5.48219 10.0933 5.78552 9.77334 6.17219 9.56C6.55885 9.34667 7.00885 9.24 7.52219 9.24ZM7.53219 10.3C7.24552 10.3 7.00552 10.3933 6.81219 10.58C6.62552 10.7667 6.51552 11.0567 6.48219 11.45H8.57219C8.57219 11.23 8.53219 11.0333 8.45219 10.86C8.37885 10.6867 8.26552 10.55 8.11219 10.45C7.95885 10.35 7.76552 10.3 7.53219 10.3ZM14.4904 13.18C14.4904 13.5467 14.4037 13.86 14.2304 14.12C14.0571 14.3733 13.7971 14.5667 13.4504 14.7C13.1037 14.8333 12.6737 14.9 12.1604 14.9C11.7804 14.9 11.4537 14.8733 11.1804 14.82C10.9071 14.7733 10.6337 14.6933 10.3604 14.58V13.35C10.6537 13.4833 10.9704 13.5933 11.3104 13.68C11.6504 13.7667 11.9504 13.81 12.2104 13.81C12.5037 13.81 12.7104 13.7667 12.8304 13.68C12.9571 13.5933 13.0204 13.48 13.0204 13.34C13.0204 13.2467 12.9937 13.1633 12.9404 13.09C12.8937 13.0167 12.7871 12.9333 12.6204 12.84C12.4537 12.7467 12.1937 12.6267 11.8404 12.48C11.5004 12.3333 11.2204 12.19 11.0004 12.05C10.7804 11.9033 10.6171 11.73 10.5104 11.53C10.4037 11.3233 10.3504 11.0667 10.3504 10.76C10.3504 10.2533 10.5471 9.87334 10.9404 9.62C11.3337 9.36667 11.8571 9.24 12.5104 9.24C12.8504 9.24 13.1737 9.27334 13.4804 9.34C13.7871 9.40667 14.1037 9.51667 14.4304 9.67L13.9804 10.74C13.8004 10.66 13.6271 10.59 13.4604 10.53C13.2937 10.47 13.1304 10.4233 12.9704 10.39C12.8171 10.3567 12.6571 10.34 12.4904 10.34C12.2704 10.34 12.1037 10.37 11.9904 10.43C11.8837 10.49 11.8304 10.58 11.8304 10.7C11.8304 10.7867 11.8571 10.8667 11.9104 10.94C11.9704 11.0067 12.0804 11.08 12.2404 11.16C12.4071 11.24 12.6504 11.3467 12.9704 11.48C13.2837 11.6067 13.5537 11.74 13.7804 11.88C14.0071 12.0133 14.1804 12.1833 14.3004 12.39C14.4271 12.59 14.4904 12.8533 14.4904 13.18ZM17.3711 14.9C16.8311 14.9 16.3711 14.8033 15.9911 14.61C15.6111 14.41 15.3211 14.1033 15.1211 13.69C14.9211 13.2767 14.8211 12.7467 14.8211 12.1C14.8211 11.4333 14.9344 10.89 15.1611 10.47C15.3878 10.05 15.7011 9.74 16.1011 9.54C16.5078 9.34 16.9744 9.24 17.5011 9.24C17.8744 9.24 18.1978 9.27667 18.4711 9.35C18.7511 9.42334 18.9944 9.51 19.2011 9.61L18.7611 10.76C18.5278 10.6667 18.3078 10.59 18.1011 10.53C17.9011 10.47 17.7011 10.44 17.5011 10.44C17.2411 10.44 17.0244 10.5033 16.8511 10.63C16.6778 10.75 16.5478 10.9333 16.4611 11.18C16.3811 11.42 16.3411 11.7233 16.3411 12.09C16.3411 12.45 16.3844 12.75 16.4711 12.99C16.5644 13.2233 16.6978 13.4 16.8711 13.52C17.0444 13.6333 17.2544 13.69 17.5011 13.69C17.8144 13.69 18.0911 13.65 18.3311 13.57C18.5711 13.4833 18.8044 13.3667 19.0311 13.22V14.49C18.8044 14.6367 18.5644 14.74 18.3111 14.8C18.0644 14.8667 17.7511 14.9 17.3711 14.9Z"
    fill="currentColor" />
</svg>