<svg viewBox="0 0 24 24" fill="none" xmlns="http://www.w3.org/2000/svg">
  <path
    d="M2 4V20C2 21.1046 2.89543 22 4 22H20C21.1046 22 22 21.1046 22 20V4C22 2.89543 21.1046 2 20 2L4 2C2.89543 2 2 2.89543 2 4Z"
    stroke="currentColor" stroke-width="2" />
  <path
    d="M10.8076 10.79H8.87262V17.3H6.63762V10.79H5.40762V9.71L6.63762 9.11V8.51C6.63762 7.81 6.75262 7.27 6.98262 6.89C7.22262 6.5 7.55762 6.225 7.98762 6.065C8.42762 5.905 8.94262 5.825 9.53262 5.825C9.97262 5.825 10.3676 5.86 10.7176 5.93C11.0776 6 11.3676 6.08 11.5876 6.17L11.0176 7.805C10.8476 7.755 10.6626 7.71 10.4626 7.67C10.2626 7.62 10.0326 7.595 9.77262 7.595C9.46262 7.595 9.23262 7.69 9.08262 7.88C8.94262 8.07 8.87262 8.31 8.87262 8.6V9.11H10.8076V10.79ZM18.5734 8.99C18.5734 9.48 18.4684 9.905 18.2584 10.265C18.0584 10.625 17.7834 10.92 17.4334 11.15C17.0934 11.38 16.7034 11.55 16.2634 11.66V11.705C17.1234 11.805 17.7734 12.065 18.2134 12.485C18.6634 12.905 18.8884 13.47 18.8884 14.18C18.8884 14.8 18.7334 15.36 18.4234 15.86C18.1234 16.35 17.6534 16.74 17.0134 17.03C16.3834 17.31 15.5684 17.45 14.5684 17.45C13.9784 17.45 13.4284 17.4 12.9184 17.3C12.4084 17.2 11.9284 17.055 11.4784 16.865V14.945C11.9384 15.175 12.4184 15.35 12.9184 15.47C13.4284 15.59 13.8984 15.65 14.3284 15.65C15.1384 15.65 15.7034 15.51 16.0234 15.23C16.3534 14.95 16.5184 14.555 16.5184 14.045C16.5184 13.745 16.4434 13.495 16.2934 13.295C16.1434 13.085 15.8784 12.93 15.4984 12.83C15.1284 12.72 14.6084 12.665 13.9384 12.665H13.1284V10.925H13.9534C14.6134 10.925 15.1134 10.865 15.4534 10.745C15.8034 10.615 16.0384 10.445 16.1584 10.235C16.2884 10.015 16.3534 9.765 16.3534 9.485C16.3534 9.105 16.2334 8.81 15.9934 8.6C15.7634 8.38 15.3734 8.27 14.8234 8.27C14.4834 8.27 14.1734 8.315 13.8934 8.405C13.6134 8.485 13.3584 8.585 13.1284 8.705C12.9084 8.825 12.7134 8.94 12.5434 9.05L11.4934 7.49C11.7734 7.29 12.0834 7.11 12.4234 6.95C12.7734 6.79 13.1584 6.665 13.5784 6.575C13.9984 6.485 14.4684 6.44 14.9884 6.44C16.0884 6.44 16.9584 6.665 17.5984 7.115C18.2484 7.555 18.5734 8.18 18.5734 8.99Z"
    fill="currentColor" />
</svg>