<svg viewBox="0 0 24 24" fill="none" xmlns="http://www.w3.org/2000/svg">
  <path
    d="M2 4V20C2 21.1046 2.89543 22 4 22H20C21.1046 22 22 21.1046 22 20V4C22 2.89543 21.1046 2 20 2L4 2C2.89543 2 2 2.89543 2 4Z"
    stroke="currentColor" stroke-width="2" />
  <path
    d="M10.8076 10.79H8.87262V17.3H6.63762V10.79H5.40762V9.71L6.63762 9.11V8.51C6.63762 7.81 6.75262 7.27 6.98262 6.89C7.22262 6.5 7.55762 6.225 7.98762 6.065C8.42762 5.905 8.94262 5.825 9.53262 5.825C9.97262 5.825 10.3676 5.86 10.7176 5.93C11.0776 6 11.3676 6.08 11.5876 6.17L11.0176 7.805C10.8476 7.755 10.6626 7.71 10.4626 7.67C10.2626 7.62 10.0326 7.595 9.77262 7.595C9.46262 7.595 9.23262 7.69 9.08262 7.88C8.94262 8.07 8.87262 8.31 8.87262 8.6V9.11H10.8076V10.79ZM19.2334 15.08H17.9434V17.3H15.7384V15.08H11.1634V13.505L15.8584 6.59H17.9434V13.325H19.2334V15.08ZM15.7384 11.51C15.7384 11.34 15.7384 11.14 15.7384 10.91C15.7484 10.67 15.7584 10.435 15.7684 10.205C15.7784 9.965 15.7884 9.755 15.7984 9.575C15.8084 9.385 15.8184 9.255 15.8284 9.185H15.7684C15.6784 9.385 15.5834 9.58 15.4834 9.77C15.3834 9.96 15.2634 10.155 15.1234 10.355L13.1584 13.325H15.7384V11.51Z"
    fill="currentColor" />
</svg>