<svg viewBox="0 0 24 24" fill="none" xmlns="http://www.w3.org/2000/svg">
  <path
    d="M2 4V20C2 21.1046 2.89543 22 4 22H20C21.1046 22 22 21.1046 22 20V4C22 2.89543 21.1046 2 20 2L4 2C2.89543 2 2 2.89543 2 4Z"
    stroke="currentColor" stroke-width="2" />
  <path
    d="M10.8076 10.79H8.87262V17.3H6.63762V10.79H5.40762V9.71L6.63762 9.11V8.51C6.63762 7.81 6.75262 7.27 6.98262 6.89C7.22262 6.5 7.55762 6.225 7.98762 6.065C8.42762 5.905 8.94262 5.825 9.53262 5.825C9.97262 5.825 10.3676 5.86 10.7176 5.93C11.0776 6 11.3676 6.08 11.5876 6.17L11.0176 7.805C10.8476 7.755 10.6626 7.71 10.4626 7.67C10.2626 7.62 10.0326 7.595 9.77262 7.595C9.46262 7.595 9.23262 7.69 9.08262 7.88C8.94262 8.07 8.87262 8.31 8.87262 8.6V9.11H10.8076V10.79ZM15.4084 10.46C16.0584 10.46 16.6384 10.585 17.1484 10.835C17.6584 11.085 18.0584 11.45 18.3484 11.93C18.6484 12.41 18.7984 13.005 18.7984 13.715C18.7984 14.485 18.6384 15.15 18.3184 15.71C17.9984 16.27 17.5184 16.7 16.8784 17C16.2484 17.3 15.4634 17.45 14.5234 17.45C13.9634 17.45 13.4334 17.4 12.9334 17.3C12.4434 17.2 12.0134 17.055 11.6434 16.865V14.915C12.0134 15.105 12.4584 15.27 12.9784 15.41C13.4984 15.54 13.9884 15.605 14.4484 15.605C14.8984 15.605 15.2734 15.545 15.5734 15.425C15.8834 15.305 16.1184 15.12 16.2784 14.87C16.4384 14.62 16.5184 14.3 16.5184 13.91C16.5184 13.38 16.3434 12.98 15.9934 12.71C15.6434 12.43 15.1034 12.29 14.3734 12.29C14.0934 12.29 13.8034 12.32 13.5034 12.38C13.2034 12.43 12.9534 12.48 12.7534 12.53L11.8534 12.05L12.2584 6.59H18.0634V8.51H14.2384L14.0434 10.61C14.2134 10.58 14.3934 10.55 14.5834 10.52C14.7834 10.48 15.0584 10.46 15.4084 10.46Z"
    fill="currentColor" />
</svg>