<svg viewBox="0 0 24 24" fill="none" xmlns="http://www.w3.org/2000/svg">
  <path
    d="M2 4V20C2 21.1046 2.89543 22 4 22H20C21.1046 22 22 21.1046 22 20V4C22 2.89543 21.1046 2 20 2L4 2C2.89543 2 2 2.89543 2 4Z"
    stroke="currentColor" stroke-width="2" />
  <path
    d="M10.8076 10.79H8.87262V17.3H6.63762V10.79H5.40762V9.71L6.63762 9.11V8.51C6.63762 7.81 6.75262 7.27 6.98262 6.89C7.22262 6.5 7.55762 6.225 7.98762 6.065C8.42762 5.905 8.94262 5.825 9.53262 5.825C9.97262 5.825 10.3676 5.86 10.7176 5.93C11.0776 6 11.3676 6.08 11.5876 6.17L11.0176 7.805C10.8476 7.755 10.6626 7.71 10.4626 7.67C10.2626 7.62 10.0326 7.595 9.77262 7.595C9.46262 7.595 9.23262 7.69 9.08262 7.88C8.94262 8.07 8.87262 8.31 8.87262 8.6V9.11H10.8076V10.79ZM11.4334 12.755C11.4334 12.135 11.4784 11.525 11.5684 10.925C11.6584 10.325 11.8134 9.76 12.0334 9.23C12.2634 8.69 12.5784 8.215 12.9784 7.805C13.3884 7.385 13.9034 7.06 14.5234 6.83C15.1534 6.59 15.9134 6.47 16.8034 6.47C17.0134 6.47 17.2584 6.48 17.5384 6.5C17.8184 6.51 18.0534 6.535 18.2434 6.575V8.39C18.0534 8.34 17.8434 8.305 17.6134 8.285C17.3934 8.255 17.1734 8.24 16.9534 8.24C16.2834 8.24 15.7284 8.32 15.2884 8.48C14.8584 8.64 14.5184 8.87 14.2684 9.17C14.0184 9.47 13.8334 9.825 13.7134 10.235C13.6034 10.635 13.5384 11.085 13.5184 11.585H13.6084C13.7484 11.345 13.9184 11.135 14.1184 10.955C14.3284 10.765 14.5834 10.615 14.8834 10.505C15.1834 10.395 15.5334 10.34 15.9334 10.34C16.5634 10.34 17.1034 10.475 17.5534 10.745C18.0134 11.005 18.3684 11.39 18.6184 11.9C18.8684 12.4 18.9934 13.01 18.9934 13.73C18.9934 14.5 18.8434 15.165 18.5434 15.725C18.2534 16.285 17.8334 16.715 17.2834 17.015C16.7434 17.305 16.0984 17.45 15.3484 17.45C14.7984 17.45 14.2834 17.355 13.8034 17.165C13.3334 16.975 12.9184 16.69 12.5584 16.31C12.2084 15.92 11.9334 15.43 11.7334 14.84C11.5334 14.25 11.4334 13.555 11.4334 12.755ZM15.3034 15.635C15.7434 15.635 16.1034 15.485 16.3834 15.185C16.6634 14.875 16.8034 14.4 16.8034 13.76C16.8034 13.24 16.6834 12.83 16.4434 12.53C16.2034 12.23 15.8384 12.08 15.3484 12.08C15.0184 12.08 14.7284 12.155 14.4784 12.305C14.2284 12.445 14.0334 12.63 13.8934 12.86C13.7534 13.09 13.6834 13.325 13.6834 13.565C13.6834 13.815 13.7184 14.065 13.7884 14.315C13.8584 14.555 13.9584 14.775 14.0884 14.975C14.2284 15.175 14.3984 15.335 14.5984 15.455C14.7984 15.575 15.0334 15.635 15.3034 15.635Z"
    fill="currentColor" />
</svg>