<svg viewBox="0 0 50 50" fill="none" xmlns="http://www.w3.org/2000/svg">
<g clip-path="url(#clip0_114_2)">
<path d="M3.60303 4.82703C7.44934 1.59959 12.9976 1.73356 16.6767 4.9165L1.42096 17.7176C-1.07478 13.5417 -0.243273 8.05445 3.60303 4.82703Z" fill="black"/>
<path d="M3.34265 20.0549L18.6449 7.21488C21.2695 11.4113 20.4692 17.007 16.5692 20.2795C12.6692 23.552 7.01951 23.3686 3.34265 20.0549Z" fill="black"/>
<path fill-rule="evenodd" clip-rule="evenodd" d="M16.3743 27.6369C15.4712 26.6172 15.5871 25.0535 16.6305 24.1779L20.5479 20.8908C21.5914 20.0152 23.1516 20.1727 23.999 21.2391L39.8172 41.1449C40.6332 42.1719 40.4828 43.6619 39.4779 44.5051L36.599 46.9209C35.5941 47.7641 34.1006 47.6533 33.2309 46.6715L16.3743 27.6369ZM28.0602 26.7922C27.0359 25.9328 25.5092 26.0664 24.6498 27.0906L22.5752 29.5629C21.716 30.5871 21.8496 32.1139 22.8736 32.9732C23.8977 33.8324 25.4246 33.6988 26.2838 32.6748L28.3584 30.2023C29.2178 29.1783 29.0842 27.6516 28.0602 26.7922Z" fill="black"/>
<path d="M46.6574 20.0147L31.3551 7.17451C28.7305 11.3709 29.5309 16.9666 33.4309 20.2391C37.3309 23.5115 42.9805 23.3281 46.6574 20.0147Z" fill="black"/>
<path d="M48.5791 17.6772C51.0748 13.5013 50.2434 8.01408 46.3969 4.78664C42.5506 1.55921 37.0023 1.69318 33.3232 4.87613L48.5791 17.6772Z" fill="black"/>
<path d="M23.7812 31.8914C24.2933 32.3211 25.0568 32.2543 25.4865 31.7424C25.916 31.2303 25.8492 30.4668 25.3373 30.0371C24.8252 29.6076 24.0617 29.6742 23.6322 30.1863C23.2025 30.6984 23.2693 31.4617 23.7812 31.8914Z" fill="black"/>
<path fill-rule="evenodd" clip-rule="evenodd" d="M26.1512 21.3248C26.9986 20.2584 28.5588 20.101 29.6024 20.9764L33.5197 24.2635C34.5633 25.1391 34.6791 26.7029 33.776 27.7227L16.9194 46.757C16.0498 47.7391 14.5562 47.8498 13.5513 47.0066L10.6723 44.5908C9.66745 43.7477 9.51704 42.2574 10.3331 41.2305L26.1512 21.3248ZM24.6498 27.0906C25.5092 26.0664 27.036 25.9328 28.0602 26.7922C29.0842 27.6516 29.2178 29.1783 28.3584 30.2023L26.2838 32.6748C25.4246 33.6988 23.8977 33.8324 22.8736 32.9732C21.8496 32.1139 21.716 30.5871 22.5752 29.5629L24.6498 27.0906Z" fill="black"/>
</g>
<defs>
<clipPath id="clip0_114_2">
<rect width="50" height="50" fill="white"/>
</clipPath>
</defs>
</svg>
